PathFileType	4	(X/Y/Z)	RBDS016\RBDS016runT45.trc
DataRate	CameraRate	NumFrames	NumMarkers	Units	OrigDataRate	OrigDataStartFrame	OrigNumFrames
150.000000	150.000000	6	33	mm	150.000000	3375	4500
Frame#	Time	L.ASIS			L.Heel.Bottom			L.Heel.Lateral			L.Heel.Top			L.Iliac.Crest			L.MT1			L.MT5			L.PSIS			L.Shank.Bottom.Lateral			L.Shank.Bottom.Medial			L.Shank.Top.Lateral			L.Shank.Top.Medial			L.Thigh.Bottom.Lateral			L.Thigh.Bottom.Medial			L.Thigh.Top.Lateral			L.Thigh.Top.Medial			R.ASIS			R.ASY			R.Heel.Bottom			R.Heel.Lateral			R.Heel.Top			R.Iliac.Crest			R.MT1			R.MT5			R.PSIS			R.Shank.Bottom.Lateral			R.Shank.Bottom.Medial			R.Shank.Top.Lateral			R.Shank.Top.Medial			R.Thigh.Bottom.Lateral			R.Thigh.Bottom.Medial			R.Thigh.Top.Lateral			R.Thigh.Top.Medial			
		X1	Y1	Z1	X2	Y2	Z2	X3	Y3	Z3	X4	Y4	Z4	X5	Y5	Z5	X6	Y6	Z6	X7	Y7	Z7	X8	Y8	Z8	X9	Y9	Z9	X10	Y10	Z10	X11	Y11	Z11	X12	Y12	Z12	X13	Y13	Z13	X14	Y14	Z14	X15	Y15	Z15	X16	Y16	Z16	X17	Y17	Z17	X18	Y18	Z18	X19	Y19	Z19	X20	Y20	Z20	X21	Y21	Z21	X22	Y22	Z22	X23	Y23	Z23	X24	Y24	Z24	X25	Y25	Z25	X26	Y26	Z26	X27	Y27	Z27	X28	Y28	Z28	X29	Y29	Z29	X30	Y30	Z30	X31	Y31	Z31	X32	Y32	Z32	X33	Y33	Z33	

3376	22.5	2354.052876051633	872.494991777046	877.5723981291256	2031.332206151247	45.54779683972903	1006.584149103955	2048.238872516264	65.49167493184244	960.4380291478246	2048.612794393278	90.88303547042524	1005.611837433574	2255.1113598016	932.4026605449906	835.7877656148785	2253.024451840677	44.73161048199242	983.1035760814786	2187.627774127785	43.96313616407439	893.2981038004178	2174.527340789135	907.0750453021236	978.9958649350397	2130.082759286173	167.5692740588279	928.8887789394333	2118.37983103505	187.4807989276624	979.5147147275693	2160.533369927179	239.6298123878284	909.0848009788403	2151.47107501881	258.7596779332525	958.5417462740443	2280.941925879884	504.1927102120842	841.3805304186158	2227.120190592085	502.7245438146662	891.0144738156804	2260.843119651493	610.6936053901877	823.775158212374	2209.579658048314	608.9330270052361	871.7285031786968	2376.194566156538	853.0027220357485	1109.450217828653	2081.805389353251	319.3977430204491	1064.12098894953	2033.891978830044	504.4700828829702	1030.959861687268	2054.923952951523	483.2990016890402	1078.294245895117	2083.689969132094	491.9716405437074	1033.065203059904	2306.538322200508	923.7634515153767	1161.994872054073	2048.803205714157	288.2054357133694	1025.33325602927	2033.720276965408	332.5615056510226	1126.371277250278	2187.344300789956	896.4487098673706	1075.958146777175	2162.926617043134	446.2236856785838	1107.528280131933	2168.582455214797	482.5251977779211	1071.991669822849	2244.369596043804	455.2937508896018	1128.474397736486	2246.28598112601	492.9111457475219	1091.36833973965	2418.607504003898	522.0611867543008	1168.328669444874	2374.595086783323	497.8883798530624	1117.026813535532	2352.569277317287	609.5418641126209	1182.309302758307	2309.510280914464	584.7536263186387	1135.546769433532	
3377	22.50666666666667	2355.59481153997	873.9014823690643	876.6319443047281	2000.898089837357	50.34318099162927	1005.77143275112	2018.187317824968	69.12620512960851	959.2516806570563	2018.694060823754	95.45249904967299	1004.043162725299	2257.720329362876	935.172734934567	833.397768888943	2222.303790122546	44.74113415157139	982.5291547041384	2157.022743434212	43.56877007190918	892.7854644148251	2175.90180372623	910.4405506178077	975.3943198001101	2102.141976240845	171.2908868090842	927.932068759793	2090.444171663863	191.5099836628556	978.4478332178385	2134.080518369349	242.6668912828325	908.283190694012	2125.080399448172	262.037533579174	957.6559443709323	2264.41779128835	505.9536664405105	840.7796314475543	2209.829085858557	507.5455912590994	889.4415551768577	2250.756414687472	613.5203925814433	823.310220202037	2198.851910741683	614.7634421947879	870.5911802894399	2376.210390212485	857.8919341625486	1109.288396925035	2107.921746785964	305.7409257076209	1065.113136498605	2045.565134105287	485.9707811145548	1031.317213112017	2068.449774004878	466.830593695144	1078.378185264098	2096.181568384718	477.5129794139256	1033.143170105305	2304.781954271227	927.4242874886544	1160.673408267888	2077.699180602683	271.7969010205966	1026.60182457455	2059.363258029284	315.2935205405144	1127.575039702811	2187.486924296516	899.7987043663952	1072.443477199348	2179.448519937759	437.2068722190078	1107.607402788801	2182.193603380526	474.265854236358	1072.460026745802	2260.033508547163	452.1309077125409	1128.409927715623	2258.845345744317	490.2812857505023	1091.728846470863	2432.207534733256	532.1398381213122	1167.319697283109	2389.339332486965	505.5959849588925	1116.115157638286	2361.564890372232	616.2874541694642	1181.38224499678	2319.463111281019	589.1236064954314	1134.935523957336	
3378	22.51333333333334	2357.691911033136	875.6830693339438	875.972834383513	1971.074217256646	56.57038839912861	1004.823293160925	1988.79382382809	73.8751554889302	957.9141415173514	1989.661254066454	101.2476413652189	1002.209989731188	2261.079416756737	938.2695200584271	831.0172677972381	2191.779193578951	44.46222705697412	981.9689309925345	2126.627744959607	43.17148755747498	892.3027399079153	2177.859770143152	914.1350515649096	971.8627604879949	2074.54751537304	175.9115130428046	926.8097787876745	2062.839037878194	196.3205557419112	977.2575029315666	2107.676286286387	246.7395782398098	907.3882770105037	2098.732263787347	266.2326965768157	956.7244151936759	2247.934307376803	508.9360179372544	840.226266521553	2192.670476449554	513.7589597709168	887.780347338199	2240.986064416128	617.1897040949674	822.812218777805	2188.485820828226	621.5954668588189	869.2437240506021	2376.770316302034	863.4141160783425	1109.280243542189	2134.761282957877	292.0308050996659	1066.233497399429	2058.041988511754	465.8042430454452	1030.398510815515	2082.513163703373	449.1352154630654	1077.270798278965	2109.198066263922	461.6271423659879	1032.081174014354	2303.593956861266	931.3177472806647	1159.616122828297	2107.69761525677	255.1977327248689	1028.23327939754	2085.750944975002	298.1722058460153	1128.646985078329	2188.171545884084	903.5240802473819	1069.041017160665	2195.866022833955	427.6505403150126	1107.068400807668	2195.649991207693	465.1282356473287	1072.168222512973	2275.100344928452	448.7172914869201	1127.837418749573	2270.745855264196	487.0488320266616	1091.454773659538	2444.627310990428	542.6839876134643	1166.11766628785	2402.862391491865	514.1362594895924	1114.969952456041	2369.978696663238	623.6119038836165	1180.404240507507	2328.87344777452	594.428356527497	1134.164713984476	
3379	22.52	2360.239327056593	877.7028231628851	875.5745759009445	1942.18792469848	64.38951163071069	1003.709811395271	1960.340133141061	79.88673697422124	956.4037730738513	1961.855011748443	108.3723652548065	1000.074576792086	2265.195748141404	941.6232026695087	828.7809184632498	2161.553271708324	43.94100602400691	981.3654336107423	2096.539579802953	42.86655423382119	891.8162705042887	2180.352795619634	918.1013880422734	968.5057521009176	2047.578601062349	181.5086402270015	925.4531906116244	2035.882927888224	201.9655628113443	975.8920527980166	2081.618699371435	251.9440056930234	906.3508562519752	2072.755004828538	271.4190108821126	955.7093059172414	2231.715737131762	513.1582525620338	839.7220751991022	2175.951948222032	521.3582547321014	886.1134731065797	2231.639630195598	621.6583041822138	822.2633606565978	2178.6637551166	629.3551528248657	867.7315555455847	2377.862083616325	869.4306188931018	1109.316937771053	2162.372224972394	278.4369659169839	1067.457886573094	2071.676009974825	444.1778860258817	1028.263760491009	2097.367785905503	430.355069908536	1075.061659536889	2123.046462917608	444.4574903878745	1029.941650662586	2303.028097510685	935.4503721127234	1158.80397016537	2138.841270126487	238.6891728228799	1030.186605437931	2112.877038651409	281.3448233365855	1129.56240809693	2189.39798523394	907.6079347102501	1065.853648840357	2212.335266576448	417.6001470700018	1105.923033213445	2209.198199394746	455.1086564006435	1071.090912241856	2289.679274532336	444.9684457014013	1126.744079361684	2282.200947107412	483.0761672767179	1090.491454377678	2455.827217572649	553.4125559054082	1164.731094811929	2415.098870374415	523.2366027279987	1113.578309556328	2377.774624628203	631.3028531112363	1179.403271852504	2337.674659637563	600.4665028513764	1133.253566334627	
3380	22.52666666666667	2363.118627982891	879.8219959159429	875.4040077006599	1914.568582756207	73.89174566503344	1002.401381671929	1933.100192684438	87.26129470316025	954.6990848823099	1935.602203538807	116.8703188384222	997.6074562616551	2270.082911030732	945.1603022090472	826.8183910102861	2131.740907220216	43.25149231805033	980.6537567078099	2066.85861420427	42.76355618652598	891.284200428234	2183.309335440665	922.2718386256458	965.400267952549	2021.51635654078	188.1082816464089	923.7986037768652	2009.896652379374	208.4460326931174	974.3035784035535	2056.211805949572	258.3141534716246	905.1260659121834	2047.481372704042	277.6097819640601	954.5740275627752	2215.959198450405	518.5976054236779	839.2687491702708	2159.944633935958	530.2828135661227	884.5243565895381	2222.798956456721	626.8693853186127	821.6542178326074	2169.540846673257	637.9440458010549	866.1181807618992	2379.438556944718	875.8033563037319	1109.287487992576	2190.77673351762	265.1068809249171	1068.74081182135	2086.765143481319	421.3280074119654	1025.039212309096	2113.231751180443	410.6430926439581	1071.897598766807	2137.983793404122	426.1747985189402	1026.851443532987	2303.112107398088	939.8701412267515	1158.201213564556	2171.141751928224	222.5374622314808	1032.388514204096	2140.728562046024	264.9083727206374	1130.29404988125	2191.144794610811	912.0241884254999	1062.959528382274	2229.000037764811	407.1037916736632	1104.207962631399	2223.067581102781	444.2309773928534	1069.239485029312	2303.887901584774	440.807944471894	1125.134094287201	2293.429442246984	478.2582125922214	1088.809874906212	2465.818359436997	564.0703464584652	1163.178869891582	2426.02692958827	532.6175632881743	1111.959449195605	2384.94341991128	639.158574557612	1178.409834798948	2345.817047127556	607.0206615744797	1132.247930678134	
3381	22.53333333333333	2366.207894721431	881.9139773131409	875.4183743338264	1888.516054939759	85.09225834067404	1000.872955987833	1907.315243476786	96.04770067891963	952.7827108234201	1911.183349934889	126.7238224220243	994.7944295814028	2275.750354032286	948.800102376061	825.2406481883404	2102.461181242531	42.50460268210637	979.7708966827823	2037.685035438512	42.99370386634955	890.6631228560118	2186.639013042061	926.5717513870492	962.595615267183	1996.623369619853	195.6897873009589	921.7990436728859	1985.178248309209	215.7198610850448	972.4570371140634	2031.74930056997	265.8250316762011	903.6819445886322	2023.22924416396	284.7642628524802	953.2906776182562	2200.831405400231	525.1913020527439	838.8681224375418	2144.873640028158	540.4172584692603	883.0920348389776	2214.518719751472	632.757261458576	820.9871720223933	2161.237535653485	647.2424667327309	864.4841516015688	2381.421012151641	882.3979901594164	1109.090827791175	2219.969252493072	252.165213171959	1070.016439708707	2103.536223277127	397.5086007016852	1020.911320642587	2130.282164087039	390.1560387704731	1067.970837820947	2154.202479438909	406.9686907401194	1022.991129383261	2303.845454179122	944.6436656612181	1157.759966394105	2204.576492665138	206.9876892576195	1034.735137461183	2169.297759653763	248.9170750385787	1130.814310712301	2193.367554876725	916.7343755626679	1060.410470636345	2245.983883430797	396.2094468959776	1101.983514236933	2237.45557854523	432.5451355553581	1066.664037035859	2317.844488775997	436.1678873669563	1123.031301079018	2304.639899224302	472.5255063468113	1086.413857143528	2474.650666027125	574.4367120789873	1161.489794540137	2435.655817343166	542.0037157646132	1110.170528995454	2391.497445282941	646.9981747584968	1177.453204738283	2353.264005284441	613.8688823136891	1131.217820630736	
